<svg width="36" height="36" viewBox="0 0 24 24" fill="none" xmlns="http://www.w3.org/2000/svg">
  <path d="M11.9 2c-3 0-5 1.3-5 3.7v2.5h5v.8H5.5C3 9 1.3 11.1 1.3 14s1.5 4.7 3.9 4.7h2.5v-3c0-1.8 1.5-3.4 3.3-3.4h5.2c1.6 0 2.8-1.3 2.8-2.8V5.7C19 3.6 16.3 2 11.9 2zm-2.8 2.2a1 1 0 11-.001 2 1 1 0 01.001-2z" fill="#3776AB"/>
  <path d="M12.1 22c3 0 5-1.3 5-3.7v-2.5h-5v-.8h6.4c2.4 0 4.2-2.1 4.2-5s-1.5-4.7-3.9-4.7H16.3v3c0 1.8-1.5 3.4-3.3 3.4h-5.2c-1.6 0-2.8 1.3-2.8 2.8v3.8C5 20.4 7.7 22 12.1 22zm2.8-2.2a1 1 0 110-2 1 1 0 010 2z" fill="#FFD43B"/>
</svg>
